REM DIRINDEX 1\2,1\3,1\4,1\5
REM DIRNAME "folder01","folder02","folder03","folder04","folder05"
TITLE ""
FILE "1Q_t_1069-1078.mp3" MP3
  TRACK 01 AUDIO
    TITLE "2:cjc172_4167"
    INDEX 01 00:00:00
  TRACK 02 AUDIO
    TITLE "0:"
    INDEX 01 00:01:18
  TRACK 03 AUDIO
    TITLE "3:cjc172_4168"
    INDEX 01 00:01:61
  TRACK 04 AUDIO
    TITLE "0:"
    INDEX 01 00:02:70
  TRACK 05 AUDIO
    TITLE "4:cjc172_4169"
    INDEX 01 00:03:05
  TRACK 06 AUDIO
    TITLE "0:"
    INDEX 01 00:04:22
  TRACK 07 AUDIO
    TITLE "5:cjc172_4170"
    INDEX 01 00:04:28
  TRACK 08 AUDIO
    TITLE "0:"
    INDEX 01 00:07:36
  TRACK 09 AUDIO
    TITLE "3:cjc172_4171"
    INDEX 01 00:08:04
  TRACK 10 AUDIO
    TITLE "0:"
    INDEX 01 00:09:09
  TRACK 11 AUDIO
    TITLE "4:cjc172_4172"
    INDEX 01 00:09:17
  TRACK 12 AUDIO
    TITLE "0:"
    INDEX 01 00:11:43
  TRACK 13 AUDIO
    TITLE "5:cjc172_4173"
    INDEX 01 00:11:49
  TRACK 14 AUDIO
    TITLE "0:"
    INDEX 01 00:16:35
  TRACK 15 AUDIO
    TITLE "3:cjc172_4174"
    INDEX 01 00:17:07
  TRACK 16 AUDIO
    TITLE "0:"
    INDEX 01 00:18:16
  TRACK 17 AUDIO
    TITLE "4:cjc172_4175"
    INDEX 01 00:18:22
  TRACK 18 AUDIO
    TITLE "0:"
    INDEX 01 00:20:44
  TRACK 19 AUDIO
    TITLE "5:cjc172_4176"
    INDEX 01 00:20:50
  TRACK 20 AUDIO
    TITLE "0:"
    INDEX 01 00:26:06
  TRACK 21 AUDIO
    TITLE "3:cjc172_4177"
    INDEX 01 00:26:53
  TRACK 22 AUDIO
    TITLE "0:"
    INDEX 01 00:27:58
  TRACK 23 AUDIO
    TITLE "4:cjc172_4178"
    INDEX 01 00:27:68
  TRACK 24 AUDIO
    TITLE "0:"
    INDEX 01 00:29:47
  TRACK 25 AUDIO
    TITLE "5:cjc172_4179"
    INDEX 01 00:29:53
  TRACK 26 AUDIO
    TITLE "0:"
    INDEX 01 00:33:67
  TRACK 27 AUDIO
    TITLE "3:cjc172_4180"
    INDEX 01 00:34:35
  TRACK 28 AUDIO
    TITLE "0:"
    INDEX 01 00:35:40
  TRACK 29 AUDIO
    TITLE "4:cjc172_4181"
    INDEX 01 00:35:50
  TRACK 30 AUDIO
    TITLE "0:"
    INDEX 01 00:39:46
  TRACK 31 AUDIO
    TITLE "5:cjc172_4182"
    INDEX 01 00:39:55
  TRACK 32 AUDIO
    TITLE "0:"
    INDEX 01 00:46:30
  TRACK 33 AUDIO
    TITLE "3:cjc172_4183"
    INDEX 01 00:46:73
  TRACK 34 AUDIO
    TITLE "0:"
    INDEX 01 00:48:07
  TRACK 35 AUDIO
    TITLE "4:cjc172_4184"
    INDEX 01 00:48:19
  TRACK 36 AUDIO
    TITLE "0:"
    INDEX 01 00:49:38
  TRACK 37 AUDIO
    TITLE "5:cjc172_4185"
    INDEX 01 00:49:44
  TRACK 38 AUDIO
    TITLE "0:"
    INDEX 01 00:53:28
  TRACK 39 AUDIO
    TITLE "3:cjc172_4186"
    INDEX 01 00:53:71
  TRACK 40 AUDIO
    TITLE "0:"
    INDEX 01 00:54:75
  TRACK 41 AUDIO
    TITLE "4:cjc172_4187"
    INDEX 01 00:55:09
  TRACK 42 AUDIO
    TITLE "0:"
    INDEX 01 00:56:28
  TRACK 43 AUDIO
    TITLE "5:cjc172_4188"
    INDEX 01 00:56:34
  TRACK 44 AUDIO
    TITLE "0:"
    INDEX 01 01:01:06
  TRACK 45 AUDIO
    TITLE "3:cjc172_4189"
    INDEX 01 01:01:53
  TRACK 46 AUDIO
    TITLE "0:"
    INDEX 01 01:02:54
  TRACK 47 AUDIO
    TITLE "4:cjc172_4190"
    INDEX 01 01:02:60
  TRACK 48 AUDIO
    TITLE "0:"
    INDEX 01 01:05:37
  TRACK 49 AUDIO
    TITLE "5:cjc172_4191"
    INDEX 01 01:05:43
  TRACK 50 AUDIO
    TITLE "0:"
    INDEX 01 01:10:23
  TRACK 51 AUDIO
    TITLE "3:cjc172_4192"
    INDEX 01 01:10:68
  TRACK 52 AUDIO
    TITLE "0:"
    INDEX 01 01:12:14
  TRACK 53 AUDIO
    TITLE "4:cjc172_4193"
    INDEX 01 01:12:22
  TRACK 54 AUDIO
    TITLE "0:"
    INDEX 01 01:13:48
  TRACK 55 AUDIO
    TITLE "5:cjc172_4194"
    INDEX 01 01:13:54
  TRACK 56 AUDIO
    TITLE "0:"
    INDEX 01 01:18:48
  TRACK 57 AUDIO
    TITLE "3:cjc172_4195"
    INDEX 01 01:19:18
  TRACK 58 AUDIO
    TITLE "0:"
    INDEX 01 01:20:39
  TRACK 59 AUDIO
    TITLE "4:cjc172_4196"
    INDEX 01 01:20:49
  TRACK 60 AUDIO
    TITLE "0:"
    INDEX 01 01:22:73
  TRACK 61 AUDIO
    TITLE "5:cjc172_4197"
    INDEX 01 01:23:04
  TRACK 62 AUDIO
    TITLE "0:"
    INDEX 01 01:28:15
